<mxfile host="app.diagrams.net" modified="2022-02-04T04:07:01.201Z" agent="5.0 (Windows NT 10.0; Win64; x64) AppleWebKit/537.36 (KHTML, like Gecko) Chrome/97.0.4692.99 Safari/537.36" etag="1Y1nsSic4tyy8x4ZBjib" version="16.5.2" type="github">
  <diagram id="1Wc4bcZUBq520yZTnEvY" name="Page-1">
    <mxGraphModel dx="782" dy="468" grid="1" gridSize="10" guides="1" tooltips="1" connect="1" arrows="1" fold="1" page="1" pageScale="1" pageWidth="850" pageHeight="1100" math="0" shadow="0">
      <root>
        <mxCell id="0" />
        <mxCell id="1" parent="0" />
        <mxCell id="j-g2Afv0bqAXRoTFaU4J-1" value="" style="rounded=0;whiteSpace=wrap;html=1;" vertex="1" parent="1">
          <mxGeometry x="320" y="190" width="140" height="60" as="geometry" />
        </mxCell>
        <mxCell id="j-g2Afv0bqAXRoTFaU4J-2" value="&lt;b&gt;&lt;font style=&quot;font-size: 14px&quot;&gt;ID Repository&lt;/font&gt;&lt;/b&gt;" style="text;html=1;strokeColor=none;fillColor=none;align=center;verticalAlign=middle;whiteSpace=wrap;rounded=0;" vertex="1" parent="1">
          <mxGeometry x="330" y="200" width="120" height="40" as="geometry" />
        </mxCell>
        <mxCell id="j-g2Afv0bqAXRoTFaU4J-5" value="" style="rounded=0;whiteSpace=wrap;html=1;" vertex="1" parent="1">
          <mxGeometry x="330" y="80" width="120" height="60" as="geometry" />
        </mxCell>
        <mxCell id="j-g2Afv0bqAXRoTFaU4J-7" value="&lt;font style=&quot;font-size: 14px&quot;&gt;Identity Service&lt;/font&gt;" style="text;html=1;strokeColor=none;fillColor=none;align=center;verticalAlign=middle;whiteSpace=wrap;rounded=0;" vertex="1" parent="1">
          <mxGeometry x="340" y="100" width="90" height="25" as="geometry" />
        </mxCell>
        <mxCell id="j-g2Afv0bqAXRoTFaU4J-14" style="edgeStyle=orthogonalEdgeStyle;rounded=0;orthogonalLoop=1;jettySize=auto;html=1;exitX=0;exitY=0.5;exitDx=0;exitDy=0;entryX=0;entryY=0.5;entryDx=0;entryDy=0;" edge="1" parent="1" source="j-g2Afv0bqAXRoTFaU4J-8" target="j-g2Afv0bqAXRoTFaU4J-12">
          <mxGeometry relative="1" as="geometry" />
        </mxCell>
        <mxCell id="j-g2Afv0bqAXRoTFaU4J-8" value="" style="rounded=0;whiteSpace=wrap;html=1;" vertex="1" parent="1">
          <mxGeometry x="180" y="100" width="80" height="60" as="geometry" />
        </mxCell>
        <mxCell id="j-g2Afv0bqAXRoTFaU4J-9" value="" style="rounded=0;whiteSpace=wrap;html=1;" vertex="1" parent="1">
          <mxGeometry x="510" y="150" width="100" height="70" as="geometry" />
        </mxCell>
        <mxCell id="j-g2Afv0bqAXRoTFaU4J-12" value="&lt;font style=&quot;font-size: 13px&quot;&gt;VID Service&lt;/font&gt;" style="text;html=1;strokeColor=none;fillColor=none;align=center;verticalAlign=middle;whiteSpace=wrap;rounded=0;" vertex="1" parent="1">
          <mxGeometry x="190" y="115" width="60" height="30" as="geometry" />
        </mxCell>
        <mxCell id="j-g2Afv0bqAXRoTFaU4J-13" value="&lt;font style=&quot;font-size: 14px&quot;&gt;Credential Service&lt;/font&gt;" style="text;html=1;strokeColor=none;fillColor=none;align=center;verticalAlign=middle;whiteSpace=wrap;rounded=0;" vertex="1" parent="1">
          <mxGeometry x="520" y="162.5" width="80" height="45" as="geometry" />
        </mxCell>
        <mxCell id="fHxiXUxJsZOqoH4QR18Y-11" value="" style="endArrow=none;html=1;rounded=0;fontSize=14;entryX=0.5;entryY=0;entryDx=0;entryDy=0;exitX=0.5;exitY=1;exitDx=0;exitDy=0;" edge="1" parent="1" source="j-g2Afv0bqAXRoTFaU4J-5" target="j-g2Afv0bqAXRoTFaU4J-1">
          <mxGeometry width="50" height="50" relative="1" as="geometry">
            <mxPoint x="400" y="140" as="sourcePoint" />
            <mxPoint x="375" y="190" as="targetPoint" />
          </mxGeometry>
        </mxCell>
        <mxCell id="fHxiXUxJsZOqoH4QR18Y-13" value="Credential request generator service" style="rounded=0;whiteSpace=wrap;html=1;fontSize=14;" vertex="1" parent="1">
          <mxGeometry x="316.25" y="300" width="122.5" height="70" as="geometry" />
        </mxCell>
        <mxCell id="fHxiXUxJsZOqoH4QR18Y-16" value="" style="endArrow=none;html=1;rounded=0;fontSize=14;" edge="1" parent="1">
          <mxGeometry width="50" height="50" relative="1" as="geometry">
            <mxPoint x="530" y="300" as="sourcePoint" />
            <mxPoint x="460" y="240" as="targetPoint" />
            <Array as="points">
              <mxPoint x="530" y="240" />
            </Array>
          </mxGeometry>
        </mxCell>
        <mxCell id="fHxiXUxJsZOqoH4QR18Y-17" value="" style="endArrow=none;html=1;rounded=0;fontSize=13;entryX=0.405;entryY=1.028;entryDx=0;entryDy=0;entryPerimeter=0;" edge="1" parent="1" target="j-g2Afv0bqAXRoTFaU4J-1">
          <mxGeometry width="50" height="50" relative="1" as="geometry">
            <mxPoint x="377" y="300" as="sourcePoint" />
            <mxPoint x="420" y="240" as="targetPoint" />
          </mxGeometry>
        </mxCell>
        <mxCell id="fHxiXUxJsZOqoH4QR18Y-18" value="" style="endArrow=none;html=1;rounded=0;fontSize=13;entryX=0.5;entryY=1;entryDx=0;entryDy=0;" edge="1" parent="1" target="j-g2Afv0bqAXRoTFaU4J-8">
          <mxGeometry width="50" height="50" relative="1" as="geometry">
            <mxPoint x="340" y="180" as="sourcePoint" />
            <mxPoint x="420" y="230" as="targetPoint" />
            <Array as="points">
              <mxPoint x="220" y="180" />
            </Array>
          </mxGeometry>
        </mxCell>
        <mxCell id="fHxiXUxJsZOqoH4QR18Y-19" value="" style="endArrow=none;html=1;rounded=0;fontSize=13;" edge="1" parent="1">
          <mxGeometry width="50" height="50" relative="1" as="geometry">
            <mxPoint x="340" y="190" as="sourcePoint" />
            <mxPoint x="340" y="180" as="targetPoint" />
          </mxGeometry>
        </mxCell>
        <mxCell id="fHxiXUxJsZOqoH4QR18Y-30" value="" style="endArrow=none;html=1;rounded=0;fontSize=13;" edge="1" parent="1">
          <mxGeometry width="50" height="50" relative="1" as="geometry">
            <mxPoint x="460" y="200" as="sourcePoint" />
            <mxPoint x="510" y="200" as="targetPoint" />
            <Array as="points">
              <mxPoint x="490" y="200" />
            </Array>
          </mxGeometry>
        </mxCell>
        <mxCell id="fHxiXUxJsZOqoH4QR18Y-32" value="Salt generator" style="rounded=0;whiteSpace=wrap;html=1;fontSize=14;" vertex="1" parent="1">
          <mxGeometry x="480" y="300" width="110" height="70" as="geometry" />
        </mxCell>
        <mxCell id="fHxiXUxJsZOqoH4QR18Y-33" value="Credential Feeder" style="rounded=0;whiteSpace=wrap;html=1;fontSize=14;" vertex="1" parent="1">
          <mxGeometry x="140" y="270" width="120" height="60" as="geometry" />
        </mxCell>
        <mxCell id="fHxiXUxJsZOqoH4QR18Y-34" value="" style="endArrow=none;html=1;rounded=0;fontSize=14;exitX=0.5;exitY=0;exitDx=0;exitDy=0;entryX=-0.014;entryY=0.622;entryDx=0;entryDy=0;entryPerimeter=0;" edge="1" parent="1" source="fHxiXUxJsZOqoH4QR18Y-33" target="j-g2Afv0bqAXRoTFaU4J-1">
          <mxGeometry width="50" height="50" relative="1" as="geometry">
            <mxPoint x="380" y="190" as="sourcePoint" />
            <mxPoint x="430" y="140" as="targetPoint" />
            <Array as="points">
              <mxPoint x="200" y="227" />
            </Array>
          </mxGeometry>
        </mxCell>
      </root>
    </mxGraphModel>
  </diagram>
</mxfile>
